<?xml version="1.0" standalone="no"?>
<svg xmlns="http://www.w3.org/2000/svg" viewBox="0 0 102.4 29" width="102.4" height="29"><path fill="#1F3541" fill-rule="nonzero" d="M19.78 16.51L14.52 16.51L14.52 10.56Q14.52 9.46 14.60 8.29Q14.69 7.13 14.78 6.34Q14.88 5.54 14.90 5.33L14.90 5.33L14.81 5.33L11.76 16.51L7.61 16.51L4.54 5.35L4.44 5.35Q4.46 5.57 4.57 6.35Q4.68 7.13 4.78 8.29Q4.87 9.46 4.87 10.56L4.87 10.56L4.87 16.51L0 16.51L0 0L7.49 0L9.98 9.53L10.08 9.53L12.55 0L19.78 0L19.78 16.51ZM37.90 4.22L32.50 4.22L32.50 16.51L27.19 16.51L27.19 4.22L21.77 4.22L21.77 0L37.90 0L37.90 4.22ZM55.37 16.51L49.75 16.51L49.06 14.18L43.27 14.18L42.58 16.51L37.15 16.51L43.18 0L49.34 0L55.37 16.51ZM46.13 4.61L44.38 10.49L47.95 10.49L46.22 4.61L46.13 4.61Z" transform="translate(0, 6.244)"></path><line x1="64.368" y1="2%" x2="64.368" y2="98%" stroke="#1F3541" stroke-linecap="round"></line><g fill="#5289B5" color="#5289B5" transform="translate(73.368 0) scale(0.5576924)"><svg width="52.0" height="52.0" x="0.0" y="0.0" viewBox="0 0 52 52"><g><path d="M25.0900269,10.25H5c-1.6500244,0-3,1.3499756-3,3v3.3199463h9.5200195c0.6399536,0,1.1599731,0.4500122,1.1599731,1   c0,0.5599976-0.5200195,1-1.1599731,1H2v3h6.4500122c0.6799927,0,1.2299805,0.4500122,1.2299805,1   c0,0.5599976-0.5499878,1-1.2299805,1H2v4.3300171h27.5100098V13.9699707l-0.9299927-1.6599731   C27.8699951,11.039978,26.539978,10.25,25.0900269,10.25z"></path><path d="M49.0599976,26.5799561l-4.5800171-4.3399658c-0.0899658-0.0800171-0.1699829-0.1900024-0.2199707-0.3099976   l-1.5-3.3300171c-0.4799805-1.0700073-1.5499878-1.7700195-2.7299805-1.7700195h-8.506958l-0.1330566,0.5100098   c0.0800171,0.1500244,0.1199951,0.3200073,0.1199951,0.4899902v20.6300049h2.039978   c-0.0599976-0.3300171-0.0899658-0.6599731-0.0899658-1c0-3.4699707,2.8299561-6.2999878,6.2999878-6.2999878   c3.4699707,0,6.289978,2.8300171,6.289978,6.2999878c0,0.3400269-0.0299683,0.6699829-0.0899658,1H48c1.0999756,0,2-0.8999634,2-2   v-7.7000122C50,27.9399414,49.6599731,27.1499634,49.0599976,26.5799561z M44.6099854,28.8999634c0,0.5499878-0.4500122,1-1,1   h-8.7099609c-0.5500488,0-1-0.4500122-1-1v-6.6799927c0-0.5499878,0.4499512-1,1-1h3.5799561   c0.3000488,0,0.6000366,0.1400146,0.7900391,0.3800049l5.1300049,6.5800171   c0.1399536,0.1699829,0.2099609,0.3899536,0.2099609,0.6099854V28.8999634z"></path><circle cx="39.7575073" cy="37.4574738" r="4.2949991"></circle><path d="M2,36.4599609c0,1.1000366,0.9000244,2,2,2h0.7700195c-0.0499878-0.3300171-0.0900269-0.6599731-0.0900269-1   c0-3.4699707,2.8200073-6.289978,6.2900391-6.289978c3.4699707,0,6.2999878,2.8200073,6.2999878,6.289978   c0,0.3400269-0.0300293,0.6699829-0.0900269,1h12.3300171v-8.5599976H2V36.4599609z"></path><ellipse cx="10.9725189" cy="37.4599762" rx="4.2950134" ry="4.2900095"></ellipse></g></svg></g></svg>